<svg xmlns="http://www.w3.org/2000/svg" version="1.1" xmlns:xlink="http://www.w3.org/1999/xlink" xmlns:svgjs="http://svgjs.com/svgjs" height="138.34765625" width="256.80859375"><defs id="SvgjsDefs3059"></defs><g id="SvgjsG3060" rel="mainfill" name="main_text" xmlns:name="main_text" transform="translate(0,-101.65234375)" fill="#44137f"><path d="M6.47 206.99C2.82 207.66 0 210.89 0 214.66L0 221.46L0 240L1.49 240L1.49 228.35L3.73 229.63L3.73 240L5.22 240L5.22 230.46L10.33 233.41L10.33 240L11.82 240L11.82 232.54C9.62 231.25 7.42 230.05 5.22 228.76L5.22 226.19C7.42 227.48 9.62 228.68 11.82 229.96L11.82 214.66C11.82 212.51 9.99 210.60 7.75 210.60C5.56 210.60 3.73 212.51 3.73 214.66L3.73 227.89L1.49 226.61L1.49 214.66C1.49 211.22 4.31 208.36 7.75 208.36C11.20 208.36 14.06 211.22 14.06 214.66L14.06 240L15.55 240L15.55 214.66C15.55 209.81 11.11 206.20 6.47 206.99ZM5.22 214.66C5.22 213.21 6.39 212.09 7.75 212.09C9.21 212.09 10.33 213.21 10.33 214.66L10.33 227.35L5.22 224.45ZM33.09 206.87L20.57 206.87L20.57 208.36L27.87 208.36L27.87 210.60L20.57 210.60L20.57 212.09L24.38 212.09L24.38 234.78L20.57 234.78L20.57 236.27L24.38 236.27L24.38 238.51L20.57 238.51L20.57 240L33.09 240L33.09 238.51L25.79 238.51L25.79 236.27L33.09 236.27L33.09 234.78L29.28 234.78L29.28 212.09L33.09 212.09L33.09 210.60L29.28 210.60L29.28 208.36L33.09 208.36ZM25.79 234.78L25.79 212.09L27.87 212.09L27.87 234.78ZM36.49 226.85L43.91 226.85L43.91 225.49L36.49 225.49ZM58.59 212.47C56.73 210.02 54.45 208.24 51.79 207.45C50.51 207.07 49.35 206.87 48.06 206.87L48.06 235.40L48.06 236.89C49.51 236.85 50.76 236.52 51.79 235.98L51.79 240C52.33 239.83 52.83 239.63 53.29 239.42C55.40 238.47 57.22 236.77 58.59 234.98C60.92 231.71 62.04 227.89 62.04 224.08C62.04 220.26 60.92 215.66 58.59 212.47ZM53.29 214.33C53.74 214.70 54.03 215.12 54.36 215.58C55.98 217.77 56.81 221.26 56.81 224.08C56.81 226.90 55.98 229.72 54.36 231.87C54.03 232.33 53.74 232.74 53.29 233.12ZM57.39 234.07C56.64 235.02 53.99 237.72 53.29 237.72L53.29 235.07C54.20 234.36 54.94 233.61 55.57 232.74C57.39 230.26 58.30 227.23 58.30 224.08C58.30 220.93 57.39 217.19 55.57 214.70C54.94 213.83 54.20 213.09 53.29 212.38C52.95 212.09 51.96 211.59 51.79 211.47L51.79 234.28C51.09 234.73 50.34 235.07 49.55 235.19L49.55 208.44C50.34 208.57 51.09 208.73 51.79 209.02C54.11 209.89 56.02 211.51 57.39 213.38C59.55 216.32 60.54 220.55 60.54 224.08C60.54 227.60 59.51 231.13 57.39 234.07ZM79.49 208.32L79.49 206.87L66.51 206.87L66.51 238.55L66.51 240L79.49 240L79.49 238.55L71.66 238.55L71.66 236.35L79.49 236.35L79.49 234.86L71.66 234.86L71.66 226.07L79.49 226.07L79.49 224.62L70.16 224.62L70.16 234.86L67.96 234.86L67.96 222.42L79.49 222.42L79.49 220.97L71.66 220.97L71.66 212.01L79.49 212.01L79.49 210.52L70.16 210.52L70.16 220.97L67.96 220.97L67.96 208.32ZM67.96 238.55L67.96 236.35L70.16 236.35L70.16 238.55ZM84.51 206.87L83.10 206.87L89.74 240L90.61 240L91.19 240L90.90 238.51ZM100.81 206.87L94.59 238.51L93.43 232.87L98.65 206.87L97.07 206.87L92.68 229.18L88.24 206.87L86.79 206.87L91.97 232.87L92.68 236.60L93.34 240L94.26 240L94.88 240L95.71 240L102.38 206.87ZM118.89 208.32L118.89 206.87L105.91 206.87L105.91 238.55L105.91 240L118.89 240L118.89 238.55L111.05 238.55L111.05 236.35L118.89 236.35L118.89 234.86L111.05 234.86L111.05 226.07L118.89 226.07L118.89 224.62L109.56 224.62L109.56 234.86L107.36 234.86L107.36 222.42L118.89 222.42L118.89 220.97L111.05 220.97L111.05 212.01L118.89 212.01L118.89 210.52L109.56 210.52L109.56 220.97L107.36 220.97L107.36 208.32ZM107.36 238.55L107.36 236.35L109.56 236.35L109.56 238.55ZM131.95 236.35L138.92 236.35L138.92 234.94L131.95 234.94L129.50 234.94L129.50 232.62L129.50 206.91L128.09 206.91L128.09 232.62L128.09 234.94L125.85 234.94L125.85 206.91L124.44 206.91L124.44 240L128.09 240L129.50 240L138.92 240L138.92 238.59L129.50 238.59L129.50 236.35ZM128.09 238.59L125.85 238.59L125.85 236.35L128.09 236.35ZM152.68 211.55C151.98 210.89 150.98 210.60 150.03 210.60C149.03 210.60 148.12 210.89 147.33 211.55C146.50 212.34 146.05 213.34 146.05 214.46L146.05 232.62C146.05 233.74 146.50 234.73 147.33 235.52C148.12 236.19 149.03 236.48 150.03 236.48C150.98 236.48 151.98 236.19 152.68 235.52C153.68 234.73 154.13 233.74 154.13 232.62L154.13 214.46C154.13 213.34 153.68 212.34 152.68 211.55ZM152.60 232.62C152.60 233.37 152.31 233.99 151.77 234.44C151.27 234.90 150.65 235.07 150.03 235.07C149.37 235.07 148.74 234.90 148.25 234.44C147.71 233.99 147.42 233.37 147.42 232.62L147.42 214.46C147.42 213.71 147.71 213.09 148.25 212.63C148.74 212.18 149.37 212.01 150.03 212.01C150.65 212.01 151.27 212.18 151.77 212.63C152.31 213.09 152.60 213.71 152.60 214.46ZM155.13 208.90C153.80 207.45 151.81 206.91 150.03 206.91C148.04 206.91 146.34 207.57 145.05 208.90C143.52 210.27 142.61 212.34 142.61 214.46L142.61 232.62C142.61 234.73 143.52 236.81 145.05 238.18C146.50 239.46 148.20 240 150.03 240C151.98 240 153.80 239.34 155.13 238.18C156.66 236.81 157.58 234.73 157.58 232.62L157.58 214.46C157.58 212.34 156.66 210.27 155.13 208.90ZM156.21 232.62C156.21 234.32 155.50 235.98 154.22 237.10C153.06 238.22 151.48 238.59 150.03 238.59C148.33 238.59 147.00 238.09 145.96 237.10C144.68 235.98 143.97 234.32 143.97 232.62L143.97 214.46C143.97 212.76 144.68 211.10 145.96 209.98C147.17 208.86 148.49 208.32 150.03 208.32C151.65 208.32 153.18 208.98 154.22 209.98C155.50 211.10 156.21 212.76 156.21 214.46ZM176.61 215.20C175.95 213.54 174.99 212.09 173.71 210.81C172.42 209.56 170.93 208.57 169.31 207.86C167.20 206.99 165.21 206.87 163.09 206.87L163.09 240L164.58 240L164.58 230.21C165.33 230.17 166.08 230.05 166.82 229.84L166.82 240L168.32 240L168.32 233.28L169.31 232.91C170.93 232.25 172.42 231.25 173.71 229.96C174.99 228.68 175.95 227.23 176.61 225.57C177.31 223.95 177.65 222.17 177.65 220.39C177.65 218.60 177.31 216.86 176.61 215.20ZM175.24 225.03C174.66 226.48 173.79 227.77 172.63 228.93C171.43 230.13 169.93 231.25 168.32 231.71L168.32 229.26C169.35 228.80 170.26 228.14 171.05 227.35C172.88 225.53 173.96 223.00 173.91 220.39C173.96 217.77 172.88 215.29 171.05 213.46C170.26 212.63 169.31 212.01 168.32 211.51C167.82 211.30 167.32 211.10 166.82 210.97L166.82 228.26C166.08 228.51 165.33 228.68 164.58 228.72L164.58 208.36C165.37 208.36 166.04 208.48 166.82 208.65C169.10 209.19 171.01 210.27 172.63 211.89C173.75 213.00 174.62 214.29 175.24 215.78C175.86 217.23 176.15 218.77 176.15 220.39C176.15 222.00 175.86 223.58 175.24 225.03ZM168.32 213.21C168.94 213.54 169.48 214.00 169.97 214.50C171.59 216.03 172.42 218.19 172.42 220.39C172.42 222.58 171.59 224.74 169.97 226.27C169.48 226.77 168.94 227.23 168.32 227.60ZM189.63 221.34L196.97 206.87L195.64 206.87L195.39 206.87L189.63 218.23L183.74 206.87L183.62 206.87L182.21 206.87ZM189.63 225.98L182.21 211.51L182.21 214.66L182.21 240L183.62 240L183.62 217.52L185.86 221.75L185.86 240L187.27 240L187.27 224.53L189.63 229.01L191.95 224.28L191.95 240L193.53 240L193.53 221.55L195.64 217.28L195.64 240L197.14 240L197.14 214.41L197.14 211.26ZM215.92 208.32L215.92 206.87L202.94 206.87L202.94 238.55L202.94 240L215.92 240L215.92 238.55L208.08 238.55L208.08 236.35L215.92 236.35L215.92 234.86L208.08 234.86L208.08 226.07L215.92 226.07L215.92 224.62L206.59 224.62L206.59 234.86L204.39 234.86L204.39 222.42L215.92 222.42L215.92 220.97L208.08 220.97L208.08 212.01L215.92 212.01L215.92 210.52L206.59 210.52L206.59 220.97L204.39 220.97L204.39 208.32ZM204.39 238.55L204.39 236.35L206.59 236.35L206.59 238.55ZM231.55 214.87L227.20 206.87L225.54 206.87L231.55 217.90L231.55 222.54L223.05 206.87L221.48 206.87L221.48 240L222.97 240L222.97 209.73L225.21 213.83L225.21 240L226.70 240L226.70 216.61L231.55 225.61L231.55 240L233.05 240L233.05 206.87L231.55 206.87ZM235.29 206.87L235.29 240L236.78 240L236.78 206.87ZM249.59 208.40L249.59 210.60L247.48 210.60L245.94 210.60L240.39 210.60L240.39 212.01L245.94 212.01L245.94 240L247.48 240L247.48 212.01L249.59 212.01L249.59 240L251.17 240L251.17 212.01L256.81 212.01L256.81 210.60L251.17 210.60L251.17 208.40L256.81 208.40L256.81 206.87L240.39 206.87L240.39 208.40L245.94 208.40L247.48 208.40Z" fill="#44137f" style="fill: #6800A0;"></path></g><g id="SvgjsG3061" rel="mainfill" name="symbol" xmlns:name="symbol_mainfill" transform="translate(78.693359375,-4.57421875) scale(1)" fill="#44137f"><circle fill="none" cx="49.689" cy="71.213" r="2.772"></circle><path fill="#44137f" d="M49.171,39.429c6.665,0,12.15-7.358,12.861-16.814c0.089-0.61,0.137-1.235,0.146-1.87l-2.08,2.389  c1.147-2.542-2.939-9.007-2.939-9.007c-6.884,4.979-17.124,0-17.124,0c-3.09,1.219-1.627,9.908-1.627,9.908  c-0.771-0.538-1.479-0.818-2.055-0.962C37.203,32.307,42.618,39.429,49.171,39.429z" style="fill: #6800A0;"></path><path fill="#44137f" d="M75.294,92.036c-0.025-0.001-0.047-0.015-0.074-0.015H24.2c-0.027,0-0.049,0.014-0.075,0.015  c-0.729,0.041-1.311,0.633-1.311,1.372c0,0.765,0.62,1.386,1.386,1.386H75.22c0.765,0,1.386-0.621,1.386-1.386  C76.606,92.668,76.024,92.077,75.294,92.036z" style="fill: #6800A0;"></path><path fill="#44137f" d="M61.461,40.039c-0.076,3.529-5.309,6.378-11.752,6.378c-6.444,0-11.675-2.849-11.752-6.378  c-6.92,0.632-12.774,4.911-15.659,10.892h54.822C74.238,44.95,68.383,40.671,61.461,40.039z" style="fill: #6800A0;"></path><g fill="#44137f"><circle fill="none" cx="49.689" cy="71.213" r="2.772"></circle><g fill="#44137f"><circle fill="none" cx="49.689" cy="71.213" r="2.772"></circle><path fill="#44137f" d="M18.372,52.119c-1.75,0-3.168,1.419-3.168,3.17l3.168,32.182c0,1.751,1.419,3.169,3.169,3.169h56.339    c1.75,0,3.169-1.418,3.169-3.169l3.168-32.182c0-1.751-1.418-3.17-3.168-3.17 M49.689,73.986c-1.53,0-2.772-1.241-2.772-2.772    c0-1.53,1.242-2.772,2.772-2.772c1.531,0,2.773,1.242,2.773,2.772C52.462,72.745,51.22,73.986,49.689,73.986z" style="fill: #6800A0;"></path></g></g><path fill="#44137f" d="M34.525,22.537c0.011,0.14,0.023,0.279,0.035,0.417c0.935,10.572,7.122,18.74,14.61,18.74  c7.59,0,13.84-8.381,14.648-19.152c0.11-0.774,0.17-1.566,0.17-2.373c0-0.807-0.06-1.599-0.17-2.372  c-1.085-7.487-7.23-13.223-14.648-13.223c-7.417,0-13.562,5.739-14.646,13.229c-0.11,0.771-0.167,1.563-0.167,2.366  c0,0.328,0.009,0.651,0.029,0.973C34.416,21.613,34.458,22.078,34.525,22.537z M40.034,14.127c0,0,10.239,4.979,17.124,0  c0,0,4.087,6.465,2.939,9.007l2.08-2.389c-0.009,0.634-0.057,1.259-0.146,1.87c-0.711,9.456-6.196,16.814-12.861,16.814  c-6.553,0-11.968-7.122-12.819-16.355c0.577,0.145,1.285,0.425,2.055,0.962C38.407,24.035,36.944,15.347,40.034,14.127z" style="fill: #6800A0;"></path></g></svg>